<?xml version="1.0" encoding="UTF-8" standalone="no"?>
<!DOCTYPE svg PUBLIC "-//W3C//DTD SVG 1.1//EN" "http://www.w3.org/Graphics/SVG/1.1/DTD/svg11.dtd">
<svg xmlns="http://www.w3.org/2000/svg" xmlns:dc="http://purl.org/dc/elements/1.1/" xmlns:xl="http://www.w3.org/1999/xlink" version="1.1" viewBox="-4.9292157 400.29493 339.58545 267.63777" width="339.58545" height="267.63777">
  <defs/>
  <metadata> Produced by OmniGraffle 7.18\n2025-09-23 14:30:31 +0000</metadata>
  <g id="Canvas_1" fill="none" fill-opacity="1" stroke="none" stroke-dasharray="none" stroke-opacity="1">
    <title>Canvas 1</title>
    <g id="Canvas_1_Layer_1">
      <title>Layer 1</title>
      <g id="Group_261">
        <g id="Line_282">
          <line x1="2.5707843" y1="407.79493" x2="2.5707843" y2="657.7949" stroke="black" stroke-linecap="round" stroke-linejoin="round" stroke-width="15"/>
        </g>
        <g id="Line_281">
          <line x1="24.629608" y1="407.79493" x2="24.629608" y2="657.7949" stroke="black" stroke-linecap="round" stroke-linejoin="round" stroke-width="15"/>
        </g>
        <g id="Line_280">
          <path d="M 145.05502 547.7949 C 110.53497 538.7949 46.626227 551.7949 46.626227 602.7949 C 46.626227 653.7949 109.602 666.7949 144.58853 657.7949" stroke="black" stroke-linecap="round" stroke-linejoin="round" stroke-width="15"/>
        </g>
        <g id="Line_279">
          <path d="M 49.699554 410.4327 C 84.2196 401.4327 148.12835 414.4327 148.12835 465.4327 C 148.12835 516.4327 85.15258 529.4327 50.16604 520.4327" stroke="black" stroke-linecap="round" stroke-linejoin="round" stroke-width="15"/>
        </g>
        <g id="Group_270">
          <g id="Group_276">
            <g id="Line_278">
              <path d="M 167.39736 522.03093 C 163.99128 501.60693 168.91117 463.79493 188.21228 463.79493 C 207.5134 463.79493 212.43329 501.05493 209.0272 521.75493" stroke="black" stroke-linecap="round" stroke-linejoin="round" stroke-width="8.28"/>
            </g>
            <g id="Line_277">
              <path d="M 180.01858 499.8385 L 190.3465 500.0858 L 214.54674 499.67493" stroke="black" stroke-linecap="round" stroke-linejoin="round" stroke-width="8.28"/>
            </g>
          </g>
          <g id="Group_271">
            <g id="Line_275">
              <line x1="237.13038" y1="465.6631" x2="237.13038" y2="523.8991" stroke="black" stroke-linecap="round" stroke-linejoin="round" stroke-width="7"/>
            </g>
            <g id="Line_274">
              <path d="M 246.75814 466.29334 C 255.59843 464.143 268.89948 467.40454 268.89948 479.5898 C 268.89948 491.7751 255.83736 494.72563 246.8776 492.5753" stroke="black" stroke-linecap="round" stroke-linejoin="round" stroke-width="8.28"/>
            </g>
            <g id="Line_273">
              <line x1="246.75814" y1="503.016" x2="268.89948" y2="523.8991" stroke="black" stroke-linecap="round" stroke-linejoin="round" stroke-width="8.28"/>
            </g>
            <g id="Line_272">
              <path d="M 228.01556 465.6631 L 228.17736 514.2227 L 228.01556 523.8991" stroke="black" stroke-linecap="round" stroke-linejoin="round" stroke-width="7"/>
            </g>
          </g>
        </g>
        <g id="Group_262">
          <g id="Line_269">
            <path d="M 272.89207 602.45555 C 276.29814 622.87955 276.23278 660.75235 252.74523 660.69155 C 229.2577 660.63074 227.85613 623.43155 231.2622 602.73155" stroke="black" stroke-linecap="round" stroke-linejoin="round" stroke-width="8.28"/>
          </g>
          <g id="Graphic_268">
            <ellipse cx="189.47035" cy="631.09406" rx="24.7396962954023" ry="30.7085597904966" stroke="black" stroke-linecap="round" stroke-linejoin="round" stroke-width="8.152702"/>
          </g>
          <g id="Group_263">
            <g id="Line_267">
              <line x1="299.00268" y1="602.45555" x2="299.00268" y2="660.69155" stroke="black" stroke-linecap="round" stroke-linejoin="round" stroke-width="7"/>
            </g>
            <g id="Line_266">
              <path d="M 308.3749 603.0858 C 317.2152 600.93544 330.51623 603.9439 330.51623 616.1291 C 330.51623 628.3144 317.4541 631.5181 308.49436 629.3677" stroke="black" stroke-linecap="round" stroke-linejoin="round" stroke-width="8.28"/>
            </g>
            <g id="Line_265">
              <line x1="308.3749" y1="639.8084" x2="330.51623" y2="660.69155" stroke="black" stroke-linecap="round" stroke-linejoin="round" stroke-width="8.28"/>
            </g>
            <g id="Line_264">
              <line x1="290.20837" y1="602.45555" x2="290.20837" y2="660.69155" stroke="black" stroke-linecap="round" stroke-linejoin="round" stroke-width="7"/>
            </g>
          </g>
        </g>
      </g>
    </g>
  </g>
</svg>
